<svg width="106" height="138" viewBox="0 0 106 138" fill="none" xmlns="http://www.w3.org/2000/svg">
<path d="M53.7938 1C53.7938 33.2039 44.9794 46.0855 25 46.0855C44.9794 46.0855 53.7938 63.0658 53.7938 90C53.7938 63.0658 59.6701 46.0855 82 46.0855C59.6701 46.0855 53.7938 33.2039 53.7938 1Z" fill="white" fill-opacity="0.5" stroke="white" stroke-opacity="0.5" stroke-linejoin="round"/>
<path d="M20 65C20 83.7306 12.567 89.4582 1 89.4582C12.567 89.4582 20 99.3344 20 115C20 99.3344 26.0722 89.4582 39 89.4582C26.0722 89.4582 20 83.7306 20 65Z" fill="white" fill-opacity="0.5" stroke="white" stroke-opacity="0.5" stroke-linejoin="round"/>
<circle cx="101.5" cy="45.5" r="4.5" fill="white" fill-opacity="0.5"/>
<circle cx="20" cy="135" r="3" fill="white" fill-opacity="0.5"/>
</svg>
